<svg width="25" height="24" viewBox="0 0 25 24" fill="none" xmlns="http://www.w3.org/2000/svg">
<path d="M22.2334 12.7687C22.2234 12.6525 22.0929 12.5884 21.9922 12.6472C21.4931 12.939 20.9614 13.1471 20.4346 13.3022C19.9554 13.4432 19.4762 13.5842 18.997 13.7253C18.0018 14.0181 17.0065 14.3109 16.0115 14.6044C14.8189 14.9562 13.8178 15.2514 12.748 15.2514C11.6783 15.2514 10.6771 14.9562 9.4845 14.6044C8.48959 14.3109 7.49448 14.0181 6.49938 13.7253C6.02005 13.5843 5.54072 13.4433 5.06141 13.3022C4.53463 13.1471 4.0029 12.939 3.50378 12.6472C3.40309 12.5884 3.27249 12.6525 3.26247 12.7687C3.09067 14.7607 2.95528 16.3307 3.0106 17.5627C3.06723 18.8237 3.32629 19.856 4.04841 20.6896C4.77636 21.53 5.74549 21.904 6.95111 22.0805C8.1178 22.2513 9.61987 22.2512 11.5102 22.2512H13.9857C15.876 22.2512 17.3781 22.2513 18.5448 22.0805C19.7504 21.904 20.7196 21.53 21.4475 20.6896C22.1696 19.856 22.4287 18.8237 22.4853 17.5627C22.5406 16.3307 22.4052 14.7607 22.2334 12.7687Z" fill="#007AFF"/>
<path d="M6.07747 5.25002C5.46341 5.24979 5.02743 5.24963 4.65939 5.33453C3.62931 5.57215 2.75101 6.31311 2.53791 7.34775C2.4628 7.71245 2.51284 8.12544 2.57126 8.60749C2.66752 9.40471 2.92401 10.1608 3.49041 10.7503C4.00379 11.2847 4.69025 11.6275 5.48627 11.8618L9.76832 13.1225C11.0883 13.5113 11.899 13.75 12.7493 13.75C13.5996 13.75 14.4102 13.5113 15.7302 13.1225L20.0123 11.8618C20.8083 11.6275 21.4947 11.2847 22.0081 10.7503C22.5745 10.1608 22.831 9.4047 22.9273 8.60746C22.9857 8.12543 23.0357 7.71245 22.9606 7.34775C22.7475 6.31311 21.8692 5.57215 20.8391 5.33453C20.4711 5.24963 20.0351 5.24979 19.4211 5.25002H6.07747Z" fill="#007AFF"/>
<path fill-rule="evenodd" clip-rule="evenodd" d="M12.5915 1.5C12.697 1.50002 12.803 1.50002 12.9079 1.5C13.4686 1.49994 13.9814 1.49989 14.4084 1.5556C14.8843 1.61769 15.3512 1.75865 15.7724 2.10567C16.1823 2.44331 16.4243 2.87391 16.6082 3.32585C16.7814 3.7512 16.938 4.28824 17.1188 4.90811L17.2813 5.42111L15.3757 6.02844L15.2159 5.52697L15.2125 5.5151C15.014 4.83479 14.8854 4.39822 14.7558 4.07988C14.6205 3.74743 14.5089 3.58567 14.1497 3.53879C13.8675 3.50197 13.4871 3.50001 12.8521 3.50001H12.6474C12.0124 3.50001 11.632 3.50197 11.3498 3.53879C10.9905 3.58567 10.8789 3.74743 10.7436 4.07988C10.6141 4.39797 10.4856 4.83412 10.2875 5.51352L10.1797 5.88737L8.25792 5.33362C8.29879 5.19177 8.33937 5.04983 8.38069 4.90812C8.56146 4.28825 8.71807 3.7512 8.89121 3.32585C9.07517 2.87391 9.31711 2.44331 9.72701 2.10567C10.1483 1.75865 10.6151 1.61769 11.091 1.5556C11.518 1.49989 12.0308 1.49994 12.5915 1.5Z" fill="#007AFF"/>
</svg>
