<svg width="25" height="24" viewBox="0 0 25 24" fill="none" xmlns="http://www.w3.org/2000/svg">
<path d="M3.76658 12.7757L3.96283 10.5H21.0372L21.2334 12.7757C21.5852 16.855 21.7611 18.8947 20.6327 20.1974C19.5042 21.5 17.5615 21.5 13.676 21.5H11.324C7.43851 21.5 5.49576 21.5 4.36734 20.1974C3.23892 18.8947 3.41481 16.855 3.76658 12.7757Z" fill="#D4D7E0"/>
<path d="M3.07956 8.62505C3.00886 8.03528 2.97351 7.74039 3.02323 7.499C3.1651 6.81015 3.77111 6.25159 4.57871 6.06529C4.86172 6 5.217 6 5.92757 6H19.0724C19.783 6 20.1383 6 20.4213 6.06529C21.2289 6.25159 21.8349 6.81015 21.9768 7.499C22.0265 7.74039 21.9911 8.03528 21.9204 8.62505C21.7584 9.97669 20.9991 10.716 19.5512 11.1423L15.38 12.3703C13.9541 12.7901 13.2411 13 12.5 13C11.7589 13 11.0459 12.7901 9.61996 12.3703L5.44882 11.1423C4.00094 10.7161 3.2416 9.97669 3.07956 8.62505Z" fill="white"/>
<path d="M12.6023 2.5H12.3977C11.1801 2.5 10.5714 2.5 10.1131 2.87752C9.65478 3.25503 9.46228 3.91505 9.07727 5.23509C9.03863 5.36754 9.13797 5.5 9.27595 5.5H15.7241C15.862 5.5 15.9614 5.36754 15.9227 5.23509C15.5377 3.91505 15.3452 3.25503 14.8869 2.87752C14.4286 2.5 13.8199 2.5 12.6023 2.5Z" fill="white"/>
<path d="M3.07956 8.62505C3.00886 8.03528 2.97351 7.74039 3.02323 7.499C3.1651 6.81015 3.77111 6.25159 4.57871 6.06529C4.86172 6 5.217 6 5.92757 6H19.0724C19.783 6 20.1383 6 20.4213 6.06529C21.2289 6.25159 21.8349 6.81015 21.9768 7.499C22.0265 7.74039 21.9911 8.03528 21.9204 8.62505C21.7584 9.97669 20.9991 10.716 19.5512 11.1423L15.38 12.3703C13.9541 12.7901 13.2411 13 12.5 13C11.7589 13 11.0459 12.7901 9.61996 12.3703L5.44882 11.1423C4.00094 10.7161 3.2416 9.97669 3.07956 8.62505Z" stroke="#6B7280" stroke-width="1.5"/>
<path d="M3.96283 10.5L3.76658 12.7757C3.41481 16.855 3.23892 18.8947 4.36734 20.1974C5.49576 21.5 7.43851 21.5 11.324 21.5H13.676C17.5615 21.5 19.5042 21.5 20.6327 20.1974C21.7611 18.8947 21.5852 16.855 21.2334 12.7757L21.0372 10.5" stroke="#6B7280" stroke-width="1.5" stroke-linecap="round" stroke-linejoin="round"/>
<path d="M16 5.5L15.9227 5.23509C15.5377 3.91505 15.3452 3.25503 14.8869 2.87752C14.4286 2.5 13.8199 2.5 12.6023 2.5H12.3977C11.1801 2.5 10.5714 2.5 10.1131 2.87752C9.65478 3.25503 9.46228 3.91505 9.07727 5.23509L9 5.5" stroke="#6B7280" stroke-width="1.5"/>
</svg>
