<svg width="25" height="24" viewBox="0 0 25 24" fill="none" xmlns="http://www.w3.org/2000/svg">
<path d="M12.5 1.25C18.4371 1.25 23.25 6.06294 23.25 12C23.25 17.9371 18.4371 22.75 12.5 22.75C6.56294 22.75 1.75 17.9371 1.75 12C1.75 6.06294 6.56294 1.25 12.5 1.25ZM17.541 16.4805C14.8736 13.6005 10.0748 13.7487 7.46387 16.4756L7.27637 16.6631C7.13119 16.8083 7.05159 17.0067 7.05664 17.2119C7.0618 17.4173 7.15133 17.6122 7.30371 17.75C8.67775 18.9925 10.5013 19.75 12.5 19.75C14.4987 19.75 16.3222 18.9924 17.6963 17.75C17.8487 17.6122 17.9382 17.4173 17.9434 17.2119C17.9484 17.0067 17.8688 16.8083 17.7236 16.6631L17.541 16.4805ZM12.4912 6.25C10.6955 6.25023 9.23828 7.70421 9.23828 9.5C9.23828 11.2958 10.6955 12.7498 12.4912 12.75C14.2871 12.75 15.7451 11.2959 15.7451 9.5C15.7451 7.70407 14.2871 6.25 12.4912 6.25Z" fill="#007AFF"/>
</svg>
