<svg width="25" height="24" viewBox="0 0 25 24" fill="none" xmlns="http://www.w3.org/2000/svg">
<circle cx="12.25" cy="12" r="10" fill="#D4D7E0"/>
<circle cx="12.25" cy="12" r="10" stroke="#6B7280" stroke-width="1.5"/>
<path d="M14.7454 9.5C14.7454 10.8807 13.6245 12 12.2418 12C10.8592 12 9.73828 10.8807 9.73828 9.5C9.73828 8.11929 10.8592 7 12.2418 7C13.6245 7 14.7454 8.11929 14.7454 9.5Z" fill="white"/>
<path d="M7.75 17C10.0817 14.5578 14.3932 14.4428 16.75 17M14.7451 9.5C14.7451 10.8807 13.6242 12 12.2415 12C10.8589 12 9.73797 10.8807 9.73797 9.5C9.73797 8.11929 10.8589 7 12.2415 7C13.6242 7 14.7451 8.11929 14.7451 9.5Z" stroke="#6B7280" stroke-width="1.5" stroke-linecap="round"/>
</svg>
